{"title":"True Blood S04E04 HDTV DTRG","uid":6548739,"size":569289789,"categoryP":"video","categoryS":"tv_shows","magnet":"?xt=urn:btih:3fc7cb90b14b5d1d88afe620eb63773e9f1c0738&amp;dn=True+Blood+S04E04+HDTV+DTRG&amp;tr=udp%3A%2F%2Ftracker.openbittorrent.com%3A80&amp;tr=udp%3A%2F%2Fopen.demonii.com%3A1337&amp;tr=udp%3A%2F%2Ftracker.coppersurfer.tk%3A6969&amp;tr=udp%3A%2F%2Fexodus.desync.com%3A6969","seeders":0,"leechers":1,"uploader":"SAFCukO09","files":3,"time":1310988972,"description":"Format/Info : Audio Video Interleave\nFile size : 543 MiB\nDuration : 50mn 30s\nOverall bit rate : 1 503 Kbps\nWriting library : MPlayer\n\nVideo\nID : 0\nFormat : MPEG-4 Visual\nFormat profile : Advanced Simple@L5\nFormat settings, BVOP : 4\nFormat settings, QPel : No\nFormat settings, GMC : No warppoints\nFormat settings, Matrix : Default (H.263)\nCodec ID : XVID\nCodec ID/Hint : XviD\nDuration : 50mn 30s\nBit rate : 1 346 Kbps\nWidth : 624 pixels\nHeight : 352 pixels\nDisplay aspect ratio : 16:9\nFrame rate : 23.976 fps\nColor space : YUV\nChroma subsampling : 4:2:0\nBit depth : 8 bits\nScan type : Progressive\nCompression mode : Lossy\nBits/(Pixel*Frame) : 0.256\nStream size : 486 MiB (90%)\nWriting library : XviD 1.2.1 (UTC 2008-12-04)\n\nAudio\nID : 1\nFormat : MPEG Audio\nFormat version : Version 1\nFormat profile : Layer 3\nMode : Joint stereo\nMode extension : MS Stereo\nCodec ID : 55\nCodec ID/Hint : MP3\nDuration : 50mn 30s\nBit rate mode : Variable\nBit rate : 145 Kbps\nChannel(s) : 2 channels\nSampling rate : 48.0 KHz\nCompression mode : Lossy\nStream size : 52.2 MiB (10%)\nAlignment : Aligned on interleaves\nInterleave, duration : 24 ms (0.58 video frame)\nInterleave, preload duration : 544 ms","torrent":{"xt":"urn:btih:3fc7cb90b14b5d1d88afe620eb63773e9f1c0738","amp;dn":"True+Blood+S04E04+HDTV+DTRG","amp;tr":["udp%3A%2F%2Ftracker.openbittorrent.com%3A80","udp%3A%2F%2Fopen.demonii.com%3A1337","udp%3A%2F%2Ftracker.coppersurfer.tk%3A6969","udp%3A%2F%2Fexodus.desync.com%3A6969"],"infoHash":"3fc7cb90b14b5d1d88afe620eb63773e9f1c0738","infoHashBuffer":{"type":"Buffer","data":[63,199,203,144,177,75,93,29,136,175,230,32,235,99,119,62,159,28,7,56]},"announce":[],"urlList":[]}}